<svg xmlns="http://www.w3.org/2000/svg" width="22" height="22" fill="none"><path fill="#BFBFC7" d="M16.045 0H5.955A5.962 5.962 0 0 0 0 5.955v10.09A5.962 5.962 0 0 0 5.955 22h10.09A5.962 5.962 0 0 0 22 16.045V5.955A5.962 5.962 0 0 0 16.045 0ZM11 17.015A6.022 6.022 0 0 1 4.985 11 6.022 6.022 0 0 1 11 4.985 6.022 6.022 0 0 1 17.015 11 6.022 6.022 0 0 1 11 17.015Zm6.16-10.612a1.78 1.78 0 0 1-1.778-1.777c0-.98.797-1.778 1.777-1.778.98 0 1.778.797 1.778 1.778a1.78 1.78 0 0 1-1.778 1.777Z"/><path fill="#BFBFC7" d="M11 7.333A3.67 3.67 0 0 0 7.333 11 3.67 3.67 0 0 0 11 14.666 3.67 3.67 0 0 0 14.666 11 3.67 3.67 0 0 0 11 7.333ZM17.16 4.138a.488.488 0 1 0 0 .976.488.488 0 0 0 0-.976Z"/></svg>