<svg xmlns="http://www.w3.org/2000/svg" width="33" height="19" fill="none"><path fill="#BFBFC7" d="M27.384 10.895c-.533-.665-.38-.96 0-1.555.007-.007 4.411-6.014 4.865-8.05l.003-.002c.225-.742 0-1.288-1.09-1.288h-3.609c-.918 0-1.342.468-1.569.992 0 0-1.837 4.34-4.436 7.154-.838.813-1.226 1.073-1.684 1.073-.226 0-.576-.26-.576-1.003V1.288C19.288.398 19.03 0 18.27 0h-5.673c-.576 0-.919.415-.919.802 0 .844 1.3 1.038 1.434 3.413v5.153c0 1.13-.207 1.337-.668 1.337-1.226 0-4.203-4.358-5.968-9.345C6.12.392 5.772 0 4.847 0h-3.61C.208.001 0 .47 0 .993c0 .926 1.227 5.528 5.704 11.608C8.688 16.751 12.89 19 16.712 19c2.298 0 2.579-.5 2.579-1.358 0-3.966-.208-4.34.943-4.34.533 0 1.452.26 3.597 2.262C26.283 17.937 26.686 19 28.058 19h3.608c1.028 0 1.55-.5 1.25-1.485-.686-2.072-5.323-6.335-5.532-6.62Z"/></svg>